<?xml version="1.0" encoding="UTF-8" standalone="no"?>
<!-- Created with Inkscape (http://www.inkscape.org/) -->

<svg
   width="240.96368mm"
   height="99.279625mm"
   viewBox="0 0 240.96368 99.279625"
   version="1.1"
   id="svg1"
   xml:space="preserve"
   xmlns="http://www.w3.org/2000/svg"
   xmlns:svg="http://www.w3.org/2000/svg"><defs
     id="defs1"><rect
       x="-196.65408"
       y="365.76108"
       width="844.41473"
       height="384.46454"
       id="rect89" /></defs><g
     id="layer2"
     transform="translate(-73.100535,-96.102939)"><text
       xml:space="preserve"
       transform="matrix(0.39438209,0,0,0.39438209,142.15567,-61.451423)"
       id="text89"
       style="font-style:normal;font-variant:normal;font-weight:normal;font-stretch:normal;font-size:268.352px;font-family:'Latin Modern Roman Unslanted';-inkscape-font-specification:'Latin Modern Roman Unslanted';white-space:pre;shape-inside:url(#rect89);display:inline;fill:#1f9bf1;fill-opacity:1;stroke:#000000;stroke-width:1.13386;stroke-dasharray:none;stroke-opacity:0.985882"><tspan
         x="-196.6543"
         y="615.59742"
         id="tspan1">Jell</tspan></text><g
       id="g89"
       transform="translate(153.57815,-2.3645943)"><path
         style="display:inline;fill:#fb6262;fill-opacity:1;stroke:#000000;stroke-width:0.2;stroke-dasharray:none;stroke-opacity:0.985882"
         d="m 108.29069,132.94792 c 0,0 1.46732,2.51192 7.64083,1.67494 0,0 2.00978,-0.8371 2.8629,-0.11534 0.72914,0.61687 0.60913,1.37 6.16277,0.36242 2.02475,-0.36734 3.9814,0.88308 8.74926,-0.73974 1.26739,-0.43138 0.69079,0.0895 3.08294,-1.10508 1.07066,-0.53466 3.78412,1.55223 5.81112,0.42951 l 4.46257,-2.47174 1.38412,-3.25451 -6.55684,-3.8708 -9.34272,-0.49361 -10.93118,0.75257 -8.03064,2.00874 -5.41407,3.19098 z"
         id="path9" /><path
         style="color:#000000;display:inline;fill:#1296fe;fill-opacity:1;stroke:#000001;stroke-width:0.3;stroke-linecap:round;stroke-dasharray:none;stroke-opacity:0.985882"
         d="m 111.3457,124.71484 a 0.89999998,0.89999998 0 0 0 -0.57226,1.13868 c 0,0 0.27305,0.82377 0.55273,1.86328 0.27969,1.0395 0.55641,2.31781 0.57813,3.02343 0.0378,1.23015 -0.28771,3.30162 -0.63477,5.00196 -0.34705,1.70033 -0.70312,3.05273 -0.70312,3.05273 l -0.008,0.0293 -0.006,0.0273 c 0,0 -0.92929,4.67997 -1.5625,6.85352 -0.80774,2.77266 -2.2993,5.48486 -3.05468,8.57226 -0.46575,1.90363 -0.82291,3.89642 -0.81446,5.92578 0.004,0.91535 0.21111,1.62883 0.37891,2.30274 0.1678,0.67391 0.31345,1.33173 0.30469,2.33203 -0.0176,2.00911 -0.60156,3.08984 -0.60156,3.08984 l -0.0352,0.0684 -0.0234,0.0723 c -1.0315,3.20356 -4.13086,6.74805 -4.13086,6.74805 a 0.89999998,0.89999998 0 0 0 0.0723,1.26953 0.89999998,0.89999998 0 0 0 1.27148,-0.0703 c 0,0 3.21069,-3.53386 4.45899,-7.30468 0.0354,-0.0705 0.76677,-1.53693 0.78711,-3.85742 0.0104,-1.19267 -0.18065,-2.07323 -0.35743,-2.78321 -0.17677,-0.70997 -0.32144,-1.22469 -0.32421,-1.875 -0.008,-1.81157 0.31464,-3.66294 0.76171,-5.49023 0.68018,-2.78005 2.15143,-5.46932 3.03321,-8.4961 0.69263,-2.37753 1.60156,-7.00976 1.60156,-7.00976 l -0.0117,0.0566 c 0,0 0.36852,-1.40012 0.72656,-3.1543 0.35805,-1.75418 0.71841,-3.83947 0.66993,-5.41601 -0.0324,-1.05198 -0.34472,-2.34493 -0.63868,-3.4375 -0.29396,-1.09257 -0.58203,-1.96094 -0.58203,-1.96094 a 0.89999998,0.89999998 0 0 0 -1.13672,-0.57227 z"
         id="path11" /><path
         style="color:#000000;display:inline;fill:#1296fe;fill-opacity:1;stroke:#000001;stroke-width:0.3;stroke-linecap:round;stroke-dasharray:none;stroke-opacity:0.985882"
         d="m 109.41602,124.58203 a 0.89999998,0.89999998 0 0 0 -0.64454,1.09766 c 0.72474,2.78246 0.76815,3.70127 0.54297,5.62304 -0.26612,2.2713 -1.71549,4.50237 -2.45898,7.16602 -0.84165,3.01529 -0.84061,6.05718 -1.87109,8.57617 -0.35905,0.87768 -1.09908,1.76009 -1.86719,2.70899 -0.76811,0.94889 -1.5834,1.9782 -1.86133,3.31054 l -1.281251,6.14649 a 0.89999998,0.89999998 0 0 0 0.697271,1.06445 0.89999998,0.89999998 0 0 0 1.06445,-0.69727 l 1.28125,-6.14648 c 0.16604,-0.79597 0.75583,-1.62802 1.49805,-2.54492 0.74221,-0.9169 1.62013,-1.90215 2.13476,-3.16016 1.21126,-2.96088 1.18933,-6.08603 1.93945,-8.77344 0.63937,-2.29058 2.18122,-4.60404 2.51368,-7.4414 0.23884,-2.0384 0.15856,-3.41181 -0.58985,-6.28516 a 0.89999998,0.89999998 0 0 0 -1.09765,-0.64453 z"
         id="path12" /><g
         id="path13"
         style="display:inline;fill:#1296fe;fill-opacity:1;stroke:#000001;stroke-width:0.3;stroke-dasharray:none;stroke-opacity:0.985882"><path
           style="color:#000000;fill:#1296fe;fill-opacity:1;stroke:#000001;stroke-width:0.3;stroke-linecap:round;stroke-dasharray:none;stroke-opacity:0.985882"
           d="m 119.67969,124.12305 a 0.89999998,0.89999998 0 0 0 -1.17774,0.48437 c 0,0 -1.89394,4.51687 -2.66601,8.61719 -0.81913,4.35024 1.44534,8.29088 1.99609,9.77734 0.6193,1.67147 1.27631,3.68612 1.5625,5.53321 0.23476,1.51505 0.4351,2.99333 0.16016,4.28125 -0.3309,1.55006 -0.53706,1.76133 -2.06641,4.19336 -0.41747,0.66387 -1.13809,1.32366 -1.85937,2.08203 -0.72129,0.75837 -1.47033,1.65566 -1.69336,2.88281 -0.34147,1.87881 0.37026,4.09649 1.07812,5.96484 0.70786,1.86836 1.48438,3.35157 1.48438,3.35157 a 0.89999998,0.89999998 0 0 0 1.21484,0.3789 0.89999998,0.89999998 0 0 0 0.38086,-1.21484 c 0,0 -0.73145,-1.39702 -1.39648,-3.15235 -0.66504,-1.75532 -1.19001,-3.90671 -0.99024,-5.00586 0.12129,-0.6673 0.57346,-1.27825 1.22461,-1.96289 0.65115,-0.68463 1.47254,-1.40106 2.08008,-2.36718 1.52165,-2.41979 1.94134,-3.0733 2.30469,-4.77539 0.36667,-1.71762 0.0932,-3.41164 -0.14258,-4.9336 -0.31909,-2.05939 -1.01652,-4.15953 -1.6543,-5.88086 -0.70632,-1.90633 -2.58353,-5.26294 -1.91406,-8.81836 0.71652,-3.80531 2.55859,-8.25976 2.55859,-8.25976 a 0.89999998,0.89999998 0 0 0 -0.48437,-1.17578 z"
           id="path21" /><g
           id="g20"
           style="fill:#1296fe;fill-opacity:1;stroke:#000001;stroke-width:0.3;stroke-dasharray:none;stroke-opacity:0.985882" /></g><path
         style="color:#000000;display:inline;fill:#1296fe;fill-opacity:1;stroke:#000001;stroke-width:0.3;stroke-linecap:round;stroke-dasharray:none;stroke-opacity:0.985882"
         d="m 127.53711,123.30469 a 0.89999998,0.89999998 0 0 0 -1.01953,0.75976 c 0,0 -0.85934,5.88562 -1.50781,8.66602 -0.74101,3.17706 -2.52256,6.33635 -2.92579,9.99414 -0.20179,1.83061 0.16723,3.58228 0.46094,5.22851 0.29371,1.64624 0.51134,3.17769 0.21094,4.58399 -0.28019,1.31167 -1.28534,2.57995 -2.18359,4.05078 -0.7929,1.29832 -2.35611,2.49969 -3.07618,4.46094 -0.64165,1.74768 -0.84753,4.20398 -0.93945,6.29492 -0.0919,2.09094 -0.041,3.79297 -0.041,3.79297 a 0.89999998,0.89999998 0 0 0 0.92773,0.87305 0.89999998,0.89999998 0 0 0 0.87305,-0.92579 c 0,0 -0.0497,-1.64131 0.0391,-3.66015 0.0888,-2.01884 0.34635,-4.43832 0.83008,-5.75586 0.48491,-1.32077 1.89449,-2.45515 2.92383,-4.14063 0.80536,-1.31872 2.00557,-2.72843 2.4082,-4.61328 0.39056,-1.82839 0.0974,-3.6036 -0.20117,-5.27734 -0.29862,-1.67374 -0.60399,-3.25769 -0.44336,-4.71485 0.34975,-3.17274 2.07075,-6.26797 2.89062,-9.7832 0.6949,-2.97943 1.53516,-8.81445 1.53516,-8.81445 a 0.89999998,0.89999998 0 0 0 -0.76172,-1.01953 z"
         id="path14" /><path
         style="color:#000000;display:inline;fill:#1296fe;fill-opacity:1;stroke:#000001;stroke-width:0.3;stroke-linecap:round;stroke-dasharray:none;stroke-opacity:0.985882"
         d="m 140.27539,123.13086 a 0.89999998,0.89999998 0 0 0 -0.6875,0.0371 0.89999998,0.89999998 0 0 0 -0.42383,1.19922 c -0.005,-0.0103 0.0868,0.50838 0.0449,1.08594 -0.0419,0.57755 -0.14636,1.24705 -0.23632,1.80859 -0.36362,2.26961 -1.39483,4.5226 -2.05274,7.00586 -0.76785,2.89822 -1.81188,5.85678 -2.14258,9.02539 -0.22057,2.11337 -0.0483,4.20772 0.15625,6.22461 0.26966,2.65893 0.65511,5.35814 1.42383,7.98047 0.51119,1.74381 1.52889,3.04039 1.80078,4.30664 0.32456,1.51156 0.0816,3.25234 0.13477,5.12304 0.045,1.58153 -0.36273,3.4519 0.17578,5.39454 0.27227,0.98224 0.89345,2.03309 1.44922,2.91796 0.55577,0.88488 1.05664,1.57032 1.05664,1.57032 a 0.89999998,0.89999998 0 0 0 1.25781,0.19531 0.89999998,0.89999998 0 0 0 0.19531,-1.25781 c 0,0 -0.46685,-0.63777 -0.98632,-1.46485 -0.51948,-0.82708 -1.08155,-1.87597 -1.23829,-2.4414 -0.38424,-1.38615 -0.0581,-3.09346 -0.11132,-4.96485 -0.047,-1.6546 0.24199,-3.51458 -0.17383,-5.45117 -0.39049,-1.81857 -1.45566,-3.14967 -1.83203,-4.43359 -0.72054,-2.45795 -1.09683,-5.04813 -1.36133,-7.65625 -0.20188,-1.99067 -0.35382,-3.96249 -0.15625,-5.85547 0.30156,-2.88944 1.29973,-5.76236 2.0918,-8.75195 0.60395,-2.2796 1.67401,-4.58612 2.08984,-7.18164 0.0908,-0.56648 0.20409,-1.27786 0.25391,-1.96485 0.0498,-0.68698 0.1079,-1.31754 -0.21485,-1.99219 a 0.89999998,0.89999998 0 0 0 -0.51367,-0.45898 z"
         id="path16" /><path
         d="m 141.05964,176.09785 c 0.137,0.135 0.343,0.174 0.52,0.099 0.178,-0.076 0.292,-0.25 0.291,-0.443 -0.002,-0.193 -0.119,-0.366 -0.298,-0.438 -0.179,-0.073 -0.356,-0.033 -0.503,0.092 -0.2,0.171 -0.198,0.505 -0.01,0.69 z m -1.745,-2.558 c 0.085,0.173 0.266,0.277 0.458,0.265 0.193,-0.013 0.359,-0.14 0.421,-0.322 0.062,-0.183 0.023,-0.35 -0.112,-0.487 -0.135,-0.138 -0.34,-0.181 -0.519,-0.109 -0.244,0.098 -0.365,0.416 -0.248,0.653 z m -0.835,-2.987 c 0.025,0.191 0.175,0.369 0.363,0.409 0.189,0.04 0.383,-0.038 0.493,-0.197 0.109,-0.159 0.128,-0.34 0.032,-0.508 -0.096,-0.168 -0.283,-0.261 -0.474,-0.237 -0.261,0.033 -0.447,0.271 -0.414,0.533 z m -0.076,-3.043 c -0.015,0.192 0.086,0.391 0.262,0.471 0.176,0.079 0.377,0.053 0.523,-0.072 0.147,-0.125 0.203,-0.327 0.144,-0.51 -0.06,-0.184 -0.217,-0.299 -0.408,-0.327 -0.26,-0.038 -0.501,0.175 -0.521,0.438 z m 0.353,-2.893 c 0,0.193 0.096,0.34 0.268,0.426 0.173,0.087 0.38,0.061 0.526,-0.065 0.146,-0.127 0.198,-0.366 0.124,-0.544 -0.074,-0.178 -0.248,-0.294 -0.441,-0.294 -0.264,0 -0.477,0.214 -0.477,0.477 z m -0.386,-2.797 c 0.047,0.187 0.203,0.326 0.394,0.354 0.191,0.028 0.379,-0.062 0.478,-0.228 0.099,-0.166 0.088,-0.375 -0.028,-0.529 -0.115,-0.155 -0.322,-0.234 -0.506,-0.175 -0.251,0.081 -0.403,0.322 -0.338,0.578 z m -0.916,-2.761 c 0.064,0.182 0.233,0.309 0.425,0.318 0.193,0.009 0.372,-0.099 0.454,-0.274 0.083,-0.174 0.054,-0.379 -0.075,-0.522 -0.129,-0.144 -0.332,-0.195 -0.514,-0.131 -0.248,0.088 -0.378,0.36 -0.29,0.609 z m -0.942,-2.827 c 0.054,0.185 0.214,0.32 0.406,0.341 0.191,0.021 0.377,-0.076 0.47,-0.245 0.093,-0.169 0.074,-0.377 -0.046,-0.528 -0.121,-0.15 -0.32,-0.213 -0.506,-0.159 -0.253,0.073 -0.398,0.338 -0.324,0.591 z m -0.721,-2.913 c 0.035,0.189 0.189,0.357 0.379,0.387 0.191,0.031 0.381,-0.056 0.482,-0.22 0.101,-0.164 0.114,-0.351 0.009,-0.513 -0.105,-0.162 -0.297,-0.244 -0.487,-0.21 -0.259,0.048 -0.43,0.297 -0.383,0.556 z m -0.463,-2.942 c 0.025,0.191 0.163,0.349 0.349,0.399 0.186,0.051 0.384,-0.016 0.502,-0.169 0.118,-0.153 0.132,-0.362 0.036,-0.529 -0.096,-0.167 -0.278,-0.25 -0.471,-0.236 -0.262,0.02 -0.45,0.274 -0.416,0.535 z m -0.203,-2.998 c 0.004,0.193 0.123,0.365 0.303,0.435 0.179,0.071 0.384,0.026 0.518,-0.112 0.133,-0.139 0.171,-0.345 0.093,-0.522 -0.077,-0.177 -0.253,-0.29 -0.445,-0.286 -0.264,0.004 -0.473,0.222 -0.469,0.485 z m 0.064,-3.008 c -0.019,0.192 0.095,0.4 0.27,0.48 0.175,0.081 0.381,0.049 0.523,-0.082 0.142,-0.131 0.194,-0.302 0.139,-0.487 -0.056,-0.185 -0.217,-0.318 -0.409,-0.338 -0.262,-0.026 -0.496,0.165 -0.523,0.427 z m 0.381,-2.973 c -0.038,0.189 0.045,0.398 0.209,0.498 0.165,0.1 0.374,0.092 0.53,-0.022 0.156,-0.114 0.234,-0.287 0.197,-0.477 -0.038,-0.189 -0.186,-0.337 -0.375,-0.374 -0.259,-0.052 -0.51,0.116 -0.561,0.375 z m 0.713,-2.919 c -0.058,0.184 0,0.407 0.155,0.522 0.155,0.115 0.364,0.125 0.529,0.026 0.166,-0.099 0.262,-0.254 0.246,-0.447 -0.017,-0.192 -0.148,-0.355 -0.332,-0.413 -0.252,-0.079 -0.519,0.061 -0.598,0.312 z m 0.886,-2.817 c -0.057,0.184 0.001,0.384 0.149,0.508 0.148,0.124 0.356,0.147 0.527,0.058 0.171,-0.089 0.271,-0.273 0.255,-0.465 -0.017,-0.192 -0.148,-0.355 -0.332,-0.413 -0.252,-0.079 -0.519,0.06 -0.599,0.312 z m 0.903,-2.806 c -0.055,0.184 0.007,0.375 0.153,0.501 0.146,0.126 0.354,0.151 0.526,0.063 0.172,-0.087 0.272,-0.283 0.253,-0.475 -0.02,-0.192 -0.153,-0.353 -0.338,-0.409 -0.252,-0.076 -0.518,0.067 -0.594,0.32 z m 0.785,-2.823 c -0.046,0.187 0.024,0.384 0.18,0.498 0.155,0.115 0.364,0.125 0.529,0.026 0.165,-0.1 0.254,-0.289 0.226,-0.48 -0.029,-0.19 -0.169,-0.345 -0.357,-0.392 -0.255,-0.064 -0.514,0.092 -0.578,0.348 z m 0.514,-2.833 c -0.018,0.192 0.083,0.355 0.248,0.455 0.165,0.1 0.383,0.08 0.532,-0.043 0.148,-0.123 0.208,-0.324 0.151,-0.508 -0.057,-0.184 -0.219,-0.316 -0.411,-0.334 -0.262,-0.025 -0.495,0.168 -0.52,0.43 z"
         style="display:inline;fill:#ffffff;fill-opacity:1;stroke:none;stroke-width:0.177307;stroke-dasharray:none;stroke-opacity:0.985882"
         id="circle8100" /><path
         style="color:#000000;display:inline;fill:#1296fe;fill-opacity:1;stroke:#000001;stroke-width:0.3;stroke-linecap:round;stroke-dasharray:none;stroke-opacity:0.985882"
         d="m 132.1875,123.19922 a 0.89999998,0.89999998 0 0 0 -0.80273,0.99023 c 0,0 0.35416,3.54395 0.27343,5.10547 -0.16355,3.16469 0.0643,1.54483 -1.44726,9.1875 -1.1025,5.57449 2.53939,8.91666 3.375,11.36719 1.09543,3.21253 0.79944,5.21624 0.31445,6.42187 -0.48499,1.20564 -1.09375,1.58008 -1.09375,1.58008 a 0.89999998,0.89999998 0 0 0 -0.24609,1.25 0.89999998,0.89999998 0 0 0 1.24804,0.2461 c 0,0 1.10637,-0.77514 1.76172,-2.4043 0.65536,-1.62916 0.92455,-4.14532 -0.27929,-7.67578 -1.12486,-3.29879 -4.2446,-5.7325 -3.31446,-10.43555 1.50919,-7.63079 1.31759,-6.33133 1.47852,-9.44531 0.10007,-1.93565 -0.2793,-5.38477 -0.2793,-5.38477 a 0.89999998,0.89999998 0 0 0 -0.98828,-0.80273 z"
         id="path15" /><path
         style="color:#000000;display:inline;fill:#1296fe;fill-opacity:1;stroke:#000001;stroke-width:0.3;stroke-linecap:round;stroke-dasharray:none;stroke-opacity:0.985882"
         d="m 142.64062,123.56445 a 0.89999998,0.89999998 0 0 0 -1.08007,0.67188 c -0.48181,2.07009 0.014,4.46231 0.37304,6.78515 0.359,2.32285 0.57184,4.54377 0.002,5.97657 -1.28058,3.21965 -1.6635,5.26787 -1.48047,6.95703 0.18302,1.68916 0.90851,2.86411 1.58203,4.30078 1.23413,2.63251 1.40638,3.75418 1.23242,4.76172 -0.17395,1.00753 -0.84887,2.16099 -1.48437,4.43359 -2.19559,7.85155 1.04687,14.20508 1.04687,14.20508 a 0.89999998,0.89999998 0 0 0 1.21094,0.39258 0.89999998,0.89999998 0 0 0 0.39258,-1.21094 c 0,0 -2.92115,-5.73185 -0.91602,-12.90234 0.58435,-2.08967 1.27075,-3.14973 1.52344,-4.61328 0.25269,-1.46356 -0.0833,-3.07056 -1.37695,-5.83008 -0.71613,-1.52755 -1.28495,-2.4687 -1.42188,-3.73242 -0.13693,-1.26373 0.13443,-3.0061 1.36328,-6.09571 0.83453,-2.09818 0.47006,-4.55892 0.10547,-6.91797 -0.36459,-2.35904 -0.73875,-4.6478 -0.40039,-6.10156 a 0.89999998,0.89999998 0 0 0 -0.67188,-1.08008 z"
         id="path18" /><path
         style="color:#000000;display:inline;fill:#1296fe;fill-opacity:1;stroke:#000001;stroke-width:0.3;stroke-linecap:round;stroke-dasharray:none;stroke-opacity:0.985882"
         d="m 144.99414,124.22852 a 0.89999998,0.89999998 0 0 0 -0.96094,0.83398 c -0.48139,6.84664 0.81905,13.36043 3.72461,18.95117 3.93039,7.56268 3.50196,17.58985 3.50196,17.58985 a 0.89999998,0.89999998 0 0 0 0.85546,0.9414 0.89999998,0.89999998 0 0 0 0.94141,-0.85547 c 0,0 0.54909,-10.32771 -3.70117,-18.50586 -2.74318,-5.27828 -3.98725,-11.45321 -3.52735,-17.99414 a 0.89999998,0.89999998 0 0 0 -0.83398,-0.96093 z"
         id="path19" /><path
         d="m 110.734,130.18 c 0.012,-0.193 -0.093,-0.373 -0.266,-0.458 -0.173,-0.085 -0.381,-0.057 -0.525,0.07 -0.145,0.128 -0.199,0.33 -0.136,0.512 0.062,0.183 0.229,0.31 0.421,0.322 0.263,0.016 0.489,-0.183 0.506,-0.446 z m -0.552,3.003 c 0.055,-0.185 0,-0.405 -0.157,-0.517 -0.156,-0.113 -0.358,-0.13 -0.527,-0.039 -0.17,0.092 -0.268,0.277 -0.248,0.469 0.02,0.192 0.154,0.353 0.339,0.408 0.252,0.075 0.518,-0.069 0.593,-0.321 z m -0.969,2.821 c 0.066,-0.181 0.018,-0.388 -0.125,-0.518 -0.144,-0.129 -0.351,-0.159 -0.525,-0.076 -0.174,0.083 -0.282,0.256 -0.274,0.449 0.007,0.193 0.131,0.362 0.312,0.428 0.247,0.091 0.521,-0.036 0.612,-0.283 z m -0.942,2.769 c 0.056,-0.185 -0.005,-0.385 -0.154,-0.507 -0.149,-0.122 -0.357,-0.142 -0.527,-0.051 -0.17,0.091 -0.269,0.275 -0.25,0.467 0.019,0.192 0.152,0.354 0.337,0.409 0.252,0.077 0.518,-0.066 0.594,-0.318 z m -0.658,2.818 c 0.033,-0.19 -0.052,-0.382 -0.215,-0.485 -0.163,-0.103 -0.372,-0.098 -0.53,0.013 -0.158,0.111 -0.233,0.306 -0.191,0.494 0.042,0.189 0.194,0.333 0.384,0.366 0.259,0.045 0.506,-0.129 0.552,-0.388 z m -0.452,2.903 c 0.027,-0.192 -0.064,-0.38 -0.23,-0.478 -0.167,-0.098 -0.376,-0.086 -0.53,0.03 -0.154,0.117 -0.223,0.314 -0.174,0.501 0.048,0.187 0.199,0.319 0.389,0.352 0.259,0.045 0.508,-0.145 0.545,-0.405 z m -0.837,2.96 c 0.08,-0.175 0.046,-0.382 -0.085,-0.523 -0.131,-0.141 -0.335,-0.189 -0.516,-0.122 -0.18,0.067 -0.303,0.237 -0.31,0.43 -0.007,0.193 0.091,0.346 0.259,0.441 0.23,0.129 0.542,0.014 0.652,-0.226 z m -1.798,2.526 c 0.135,-0.138 0.173,-0.344 0.097,-0.521 -0.076,-0.177 -0.251,-0.291 -0.444,-0.289 -0.193,0.002 -0.366,0.121 -0.437,0.3 -0.072,0.179 -0.029,0.383 0.109,0.518 0.189,0.184 0.491,0.18 0.675,-0.008 z m -1.557,2.275 c 0.077,-0.177 0.029,-0.364 -0.097,-0.51 -0.125,-0.147 -0.337,-0.194 -0.516,-0.124 -0.179,0.071 -0.318,0.278 -0.306,0.47 0.011,0.193 0.137,0.359 0.32,0.422 0.248,0.087 0.494,-0.017 0.599,-0.258 z m -0.75,2.739 c 0.035,-0.19 -0.041,-0.371 -0.201,-0.48 -0.159,-0.109 -0.368,-0.11 -0.53,-0.005 -0.161,0.106 -0.245,0.311 -0.204,0.5 0.04,0.188 0.191,0.334 0.38,0.369 0.26,0.047 0.508,-0.125 0.555,-0.384 z m -0.56,2.913 c 0.04,-0.189 -0.038,-0.383 -0.197,-0.492 -0.16,-0.109 -0.369,-0.111 -0.53,-0.006 -0.162,0.106 -0.244,0.298 -0.208,0.488 0.035,0.19 0.182,0.339 0.37,0.379 0.258,0.054 0.511,-0.111 0.565,-0.369 z"
         style="display:inline;fill:#fdfdfe;fill-opacity:1;stroke:none;stroke-width:0.177307;stroke-dasharray:none;stroke-opacity:0.985882"
         id="circle3322" /><path
         d="m 112.86,128.635 c -0.055,-0.185 -0.216,-0.319 -0.408,-0.339 -0.192,-0.02 -0.377,0.077 -0.469,0.247 -0.091,0.169 -0.072,0.378 0.049,0.527 0.122,0.15 0.313,0.197 0.502,0.159 0.258,-0.053 0.401,-0.342 0.326,-0.594 z m 0.456,3.024 c -0.009,-0.193 -0.133,-0.361 -0.315,-0.426 -0.181,-0.066 -0.384,-0.016 -0.514,0.127 -0.13,0.142 -0.157,0.315 -0.087,0.494 0.07,0.18 0.242,0.3 0.435,0.304 0.263,0.005 0.493,-0.236 0.481,-0.499 z m -0.257,3.031 c 0.028,-0.191 -0.061,-0.38 -0.226,-0.48 -0.166,-0.099 -0.375,-0.089 -0.53,0.025 -0.155,0.115 -0.225,0.312 -0.179,0.499 0.047,0.187 0.201,0.328 0.392,0.357 0.261,0.039 0.504,-0.141 0.543,-0.401 z m -0.616,2.934 c 0.047,-0.187 -0.023,-0.384 -0.178,-0.499 -0.155,-0.115 -0.364,-0.125 -0.53,-0.026 -0.165,0.099 -0.255,0.289 -0.226,0.479 0.028,0.191 0.169,0.346 0.356,0.393 0.256,0.064 0.515,-0.091 0.578,-0.347 z m -0.711,2.851 c 0.041,-0.189 -0.029,-0.369 -0.184,-0.484 -0.155,-0.115 -0.364,-0.125 -0.529,-0.026 -0.165,0.099 -0.257,0.305 -0.223,0.495 0.035,0.19 0.181,0.34 0.369,0.381 0.258,0.055 0.511,-0.108 0.567,-0.366 z m -0.628,2.906 c 0.048,-0.187 -0.028,-0.402 -0.187,-0.512 -0.159,-0.109 -0.368,-0.111 -0.53,-0.006 -0.162,0.105 -0.244,0.274 -0.217,0.465 0.027,0.191 0.166,0.347 0.353,0.395 0.255,0.066 0.515,-0.087 0.581,-0.342 z m -0.835,2.857 c 0.057,-0.185 -0.002,-0.385 -0.15,-0.509 -0.148,-0.123 -0.356,-0.145 -0.527,-0.055 -0.171,0.089 -0.271,0.273 -0.253,0.465 0.017,0.192 0.147,0.345 0.328,0.411 0.248,0.09 0.524,-0.061 0.602,-0.312 z m -1,2.802 c 0.066,-0.181 0.016,-0.384 -0.126,-0.514 -0.142,-0.131 -0.349,-0.162 -0.524,-0.081 -0.175,0.082 -0.283,0.261 -0.275,0.453 0.009,0.193 0.132,0.362 0.314,0.428 0.247,0.09 0.521,-0.038 0.611,-0.286 z m -0.997,2.775 c 0.064,-0.182 0.011,-0.385 -0.132,-0.513 -0.144,-0.129 -0.351,-0.158 -0.525,-0.075 -0.174,0.084 -0.28,0.264 -0.27,0.457 0.011,0.192 0.137,0.36 0.319,0.423 0.249,0.087 0.521,-0.044 0.608,-0.292 z m -0.897,2.789 c 0.055,-0.185 -0.007,-0.385 -0.157,-0.506 -0.15,-0.122 -0.358,-0.141 -0.528,-0.049 -0.169,0.092 -0.267,0.277 -0.247,0.469 0.02,0.191 0.154,0.352 0.339,0.407 0.252,0.075 0.518,-0.068 0.593,-0.321 z m -0.662,2.827 c 0.036,-0.189 -0.046,-0.382 -0.207,-0.488 -0.161,-0.106 -0.37,-0.104 -0.53,0.005 -0.159,0.108 -0.244,0.329 -0.195,0.516 0.05,0.186 0.206,0.324 0.398,0.35 0.261,0.036 0.485,-0.124 0.534,-0.383 z m -0.228,2.842 c -0.003,-0.192 -0.122,-0.364 -0.302,-0.435 -0.179,-0.071 -0.383,-0.027 -0.517,0.111 -0.135,0.139 -0.172,0.345 -0.095,0.522 0.076,0.177 0.264,0.307 0.456,0.286 0.262,-0.028 0.462,-0.22 0.458,-0.484 z m 0.362,2.86 c -0.031,-0.191 -0.173,-0.344 -0.361,-0.389 -0.187,-0.044 -0.384,0.029 -0.497,0.185 -0.113,0.156 -0.12,0.365 -0.019,0.529 0.101,0.165 0.285,0.247 0.476,0.222 0.261,-0.034 0.443,-0.287 0.401,-0.547 z m 0.191,3.057 c 0.017,-0.192 -0.087,-0.4 -0.263,-0.478 -0.177,-0.078 -0.383,-0.042 -0.522,0.092 -0.14,0.133 -0.203,0.302 -0.145,0.486 0.058,0.184 0.201,0.298 0.392,0.33 0.26,0.043 0.515,-0.168 0.538,-0.43 z m -0.888,2.962 c 0.077,-0.176 0.041,-0.382 -0.092,-0.522 -0.134,-0.139 -0.338,-0.184 -0.518,-0.114 -0.179,0.07 -0.299,0.241 -0.304,0.434 -0.004,0.193 0.107,0.355 0.279,0.444 0.234,0.121 0.529,-0.001 0.635,-0.242 z m -1.443,2.652 c 0.102,-0.164 0.095,-0.373 -0.018,-0.53 -0.112,-0.157 -0.308,-0.23 -0.496,-0.187 -0.188,0.044 -0.331,0.197 -0.362,0.388 -0.031,0.19 0.055,0.38 0.219,0.482 0.224,0.139 0.518,0.07 0.657,-0.153 z m -1.536,2.513 c 0.099,-0.165 0.089,-0.374 -0.026,-0.529 -0.116,-0.155 -0.313,-0.225 -0.5,-0.178 -0.187,0.047 -0.327,0.202 -0.355,0.393 -0.028,0.191 0.061,0.38 0.227,0.479 0.226,0.135 0.519,0.061 0.654,-0.165 z"
         style="display:inline;fill:#ffffff;fill-opacity:1;stroke:none;stroke-width:0.177307;stroke-dasharray:none;stroke-opacity:0.985882"
         id="circle9359" /><path
         d="m 115.62,168.314 c 0.063,0.183 0.203,0.294 0.394,0.318 0.192,0.023 0.379,-0.071 0.474,-0.239 0.095,-0.167 0.068,-0.406 -0.06,-0.55 -0.128,-0.145 -0.337,-0.207 -0.515,-0.134 -0.244,0.1 -0.379,0.356 -0.293,0.605 z m -1.103,-2.715 c 0.072,0.179 0.244,0.298 0.437,0.301 0.192,0.003 0.368,-0.111 0.444,-0.288 0.077,-0.177 0.039,-0.383 -0.095,-0.522 -0.135,-0.138 -0.329,-0.173 -0.512,-0.113 -0.251,0.082 -0.371,0.377 -0.274,0.622 z m -0.398,-3.156 c -0.043,0.188 0.023,0.438 0.195,0.525 0.172,0.087 0.358,0.089 0.522,-0.013 0.163,-0.102 0.224,-0.234 0.216,-0.427 -0.008,-0.193 -0.122,-0.34 -0.297,-0.421 -0.239,-0.111 -0.577,0.08 -0.636,0.336 z m 1.748,-2.608 c -0.119,0.151 -0.136,0.36 -0.041,0.528 0.094,0.169 0.28,0.263 0.472,0.241 0.192,-0.023 0.351,-0.159 0.403,-0.345 0.052,-0.185 -0.013,-0.384 -0.164,-0.504 -0.207,-0.163 -0.507,-0.127 -0.67,0.08 z m 1.781,-2.318 c -0.11,0.159 -0.106,0.35 -0.01,0.517 0.096,0.167 0.284,0.259 0.475,0.234 0.192,-0.025 0.353,-0.192 0.394,-0.381 0.04,-0.188 -0.037,-0.383 -0.196,-0.492 -0.217,-0.15 -0.514,-0.095 -0.663,0.122 z m 1.51,-2.438 c -0.081,0.175 -0.053,0.354 0.069,0.504 0.122,0.149 0.322,0.21 0.507,0.154 0.184,-0.056 0.326,-0.248 0.334,-0.441 0.007,-0.192 -0.102,-0.371 -0.278,-0.451 -0.239,-0.11 -0.522,-0.006 -0.632,0.234 z m 0.871,-2.691 c -0.036,0.19 0.044,0.382 0.205,0.489 0.161,0.106 0.37,0.106 0.53,-0.002 0.16,-0.108 0.248,-0.35 0.191,-0.534 -0.056,-0.185 -0.217,-0.317 -0.409,-0.336 -0.263,-0.026 -0.466,0.125 -0.517,0.383 z m -0.057,-2.792 c 0.024,0.191 0.161,0.349 0.347,0.401 0.186,0.051 0.385,-0.015 0.503,-0.167 0.119,-0.152 0.134,-0.361 0.039,-0.529 -0.096,-0.168 -0.297,-0.271 -0.487,-0.236 -0.259,0.049 -0.434,0.269 -0.402,0.531 z m -0.589,-2.828 c 0.048,0.186 0.205,0.325 0.396,0.352 0.191,0.027 0.379,-0.064 0.477,-0.231 0.097,-0.166 0.085,-0.375 -0.031,-0.529 -0.116,-0.154 -0.314,-0.222 -0.5,-0.174 -0.255,0.066 -0.408,0.327 -0.342,0.582 z m -0.883,-2.771 c 0.066,0.182 0.234,0.306 0.427,0.314 0.193,0.009 0.372,-0.1 0.453,-0.274 0.082,-0.175 0.05,-0.382 -0.08,-0.524 -0.13,-0.143 -0.333,-0.193 -0.515,-0.127 -0.247,0.09 -0.375,0.364 -0.285,0.611 z m -1.009,-2.776 c 0.066,0.182 0.235,0.305 0.428,0.314 0.192,0.008 0.371,-0.1 0.453,-0.275 0.081,-0.175 0.05,-0.382 -0.081,-0.524 -0.13,-0.142 -0.333,-0.192 -0.515,-0.126 -0.247,0.09 -0.375,0.364 -0.285,0.611 z m -1.003,-2.806 c 0.055,0.184 0.228,0.336 0.42,0.344 0.193,0.009 0.372,-0.1 0.453,-0.275 0.082,-0.175 0.075,-0.359 -0.047,-0.508 -0.122,-0.15 -0.303,-0.202 -0.491,-0.159 -0.257,0.058 -0.411,0.345 -0.335,0.598 z m -0.336,-3.095 c -0.015,0.192 0.106,0.408 0.285,0.479 0.18,0.071 0.384,0.028 0.518,-0.111 0.135,-0.138 0.185,-0.296 0.126,-0.479 -0.06,-0.184 -0.225,-0.313 -0.417,-0.328 -0.263,-0.02 -0.492,0.176 -0.512,0.439 z m 0.444,-2.997 c -0.047,0.188 0.035,0.402 0.195,0.51 0.16,0.109 0.369,0.11 0.53,0.003 0.161,-0.106 0.238,-0.278 0.21,-0.469 -0.029,-0.19 -0.17,-0.345 -0.357,-0.392 -0.256,-0.063 -0.515,0.093 -0.578,0.348 z m 0.734,-2.872 c -0.051,0.187 0.016,0.385 0.168,0.503 0.153,0.118 0.362,0.132 0.529,0.037 0.167,-0.096 0.261,-0.283 0.236,-0.475 -0.024,-0.191 -0.162,-0.349 -0.348,-0.4 -0.254,-0.069 -0.516,0.081 -0.585,0.335 z m 0.862,-2.846 c -0.058,0.184 -10e-4,0.385 0.147,0.51 0.147,0.124 0.355,0.148 0.526,0.059 0.172,-0.088 0.273,-0.271 0.257,-0.463 -0.016,-0.193 -0.146,-0.356 -0.33,-0.415 -0.251,-0.08 -0.52,0.058 -0.6,0.309 z"
         style="display:inline;fill:#ffffff;fill-opacity:1;stroke:none;stroke-width:0.177307;stroke-dasharray:none;stroke-opacity:0.985882"
         id="circle1007" /><path
         d="m 116.936,170.564 c 0,0.193 0.116,0.367 0.294,0.441 0.178,0.074 0.383,0.034 0.52,-0.102 0.136,-0.136 0.178,-0.341 0.105,-0.519 -0.074,-0.179 -0.247,-0.295 -0.44,-0.296 -0.264,-0.001 -0.478,0.212 -0.479,0.476 z m -0.008,-2.949 c 0.002,0.193 0.12,0.366 0.299,0.438 0.179,0.073 0.383,0.03 0.519,-0.107 0.135,-0.138 0.174,-0.344 0.098,-0.521 -0.075,-0.178 -0.25,-0.292 -0.443,-0.291 -0.263,0.003 -0.475,0.218 -0.473,0.481 z m 0.132,-3.011 c -0.024,0.192 0.067,0.399 0.24,0.485 0.173,0.085 0.374,0.068 0.526,-0.051 0.152,-0.118 0.218,-0.317 0.167,-0.503 -0.052,-0.186 -0.21,-0.322 -0.402,-0.346 -0.261,-0.032 -0.499,0.154 -0.531,0.415 z m 0.637,-2.963 c -0.057,0.184 0.004,0.384 0.153,0.507 0.149,0.122 0.357,0.143 0.527,0.052 0.17,-0.09 0.269,-0.275 0.25,-0.467 -0.018,-0.192 -0.147,-0.335 -0.327,-0.406 -0.244,-0.098 -0.527,0.062 -0.603,0.314 z m 1.634,-2.657 c -0.128,0.144 -0.156,0.351 -0.072,0.525 0.084,0.173 0.265,0.279 0.457,0.267 0.193,-0.011 0.377,-0.15 0.433,-0.334 0.056,-0.185 -0.005,-0.385 -0.155,-0.507 -0.204,-0.167 -0.488,-0.148 -0.663,0.049 z m 1.768,-2.307 c -0.113,0.155 -0.122,0.364 -0.022,0.529 0.101,0.165 0.29,0.253 0.481,0.223 0.191,-0.03 0.345,-0.171 0.39,-0.359 0.045,-0.187 -0.028,-0.389 -0.185,-0.5 -0.216,-0.151 -0.508,-0.106 -0.664,0.107 z m 1.581,-2.398 c -0.087,0.172 -0.054,0.355 0.062,0.51 0.115,0.154 0.313,0.223 0.5,0.175 0.186,-0.048 0.326,-0.244 0.34,-0.437 0.013,-0.192 -0.106,-0.4 -0.285,-0.471 -0.245,-0.096 -0.499,-0.012 -0.617,0.223 z m 0.498,-2.674 c -0.006,0.193 0.104,0.37 0.28,0.45 0.175,0.08 0.382,0.046 0.522,-0.086 0.141,-0.132 0.191,-0.379 0.108,-0.553 -0.083,-0.174 -0.263,-0.281 -0.456,-0.271 -0.263,0.013 -0.445,0.197 -0.454,0.46 z m -0.31,-2.845 c 0.029,0.19 0.17,0.344 0.358,0.39 0.187,0.046 0.384,-0.025 0.498,-0.181 0.114,-0.156 0.123,-0.365 0.023,-0.529 -0.1,-0.165 -0.29,-0.254 -0.481,-0.224 -0.26,0.04 -0.438,0.283 -0.398,0.544 z m -0.374,-2.972 c 0.012,0.193 0.142,0.374 0.327,0.428 0.185,0.055 0.38,0.001 0.507,-0.144 0.127,-0.145 0.155,-0.352 0.07,-0.525 -0.086,-0.173 -0.267,-0.278 -0.459,-0.265 -0.263,0.017 -0.462,0.244 -0.445,0.506 z m -0.067,-3.022 c -0.017,0.192 0.097,0.399 0.274,0.477 0.176,0.078 0.382,0.042 0.522,-0.091 0.139,-0.133 0.192,-0.305 0.134,-0.489 -0.059,-0.184 -0.222,-0.314 -0.414,-0.331 -0.263,-0.023 -0.494,0.172 -0.516,0.434 z m 0.678,-2.995 c -0.069,0.18 -0.023,0.384 0.116,0.517 0.14,0.133 0.346,0.168 0.522,0.09 0.177,-0.078 0.281,-0.24 0.283,-0.433 0.001,-0.193 -0.114,-0.367 -0.292,-0.442 -0.242,-0.103 -0.534,0.022 -0.629,0.268 z m 1.051,-2.74 c -0.063,0.183 -0.009,0.385 0.136,0.513 0.145,0.127 0.352,0.155 0.525,0.07 0.174,-0.085 0.279,-0.266 0.266,-0.459 -0.012,-0.192 -0.139,-0.359 -0.322,-0.421 -0.249,-0.085 -0.52,0.048 -0.605,0.297 z m 0.906,-2.795 c -0.057,0.184 0.003,0.385 0.152,0.508 0.149,0.123 0.357,0.144 0.527,0.053 0.171,-0.09 0.27,-0.274 0.252,-0.466 -0.019,-0.192 -0.151,-0.354 -0.335,-0.411 -0.252,-0.077 -0.519,0.064 -0.596,0.316 z m 0.652,-2.813 c -0.031,0.19 0.054,0.371 0.215,0.478 0.161,0.106 0.37,0.105 0.53,-0.003 0.16,-0.108 0.234,-0.316 0.191,-0.504 -0.044,-0.188 -0.196,-0.331 -0.387,-0.363 -0.259,-0.043 -0.505,0.132 -0.549,0.392 z m 0.486,-2.914 c -0.032,0.19 0.054,0.381 0.218,0.483 0.164,0.102 0.373,0.096 0.53,-0.016 0.157,-0.112 0.231,-0.308 0.187,-0.496 -0.043,-0.188 -0.196,-0.331 -0.386,-0.363 -0.26,-0.043 -0.506,0.132 -0.549,0.392 z m 0.485,-2.914 c -0.031,0.191 0.055,0.381 0.218,0.483 0.164,0.102 0.373,0.096 0.53,-0.016 0.157,-0.112 0.231,-0.308 0.188,-0.496 -0.044,-0.188 -0.196,-0.331 -0.387,-0.363 -0.26,-0.043 -0.505,0.132 -0.549,0.392 z"
         style="display:inline;fill:#ffffff;fill-opacity:1;stroke:none;stroke-width:0.177307;stroke-dasharray:none;stroke-opacity:0.985882"
         id="circle3626" /><path
         d="m 132.914,125.895 c -0.014,-0.193 -0.144,-0.357 -0.327,-0.417 -0.184,-0.06 -0.385,-0.003 -0.51,0.143 -0.126,0.147 -0.151,0.355 -0.063,0.527 0.087,0.172 0.269,0.274 0.462,0.259 0.262,-0.02 0.459,-0.25 0.438,-0.512 z m 0.077,2.997 c 0.004,-0.193 -0.109,-0.369 -0.286,-0.447 -0.176,-0.077 -0.382,-0.04 -0.521,0.094 -0.139,0.133 -0.184,0.338 -0.114,0.517 0.071,0.18 0.235,0.291 0.427,0.303 0.263,0.017 0.489,-0.204 0.494,-0.467 z m -0.241,3 c 0.027,-0.191 -0.069,-0.393 -0.238,-0.485 -0.17,-0.092 -0.378,-0.073 -0.528,0.049 -0.15,0.122 -0.216,0.302 -0.168,0.488 0.048,0.187 0.204,0.327 0.395,0.354 0.261,0.037 0.503,-0.145 0.539,-0.406 z m -0.509,2.933 c 0.036,-0.19 -0.045,-0.382 -0.206,-0.489 -0.161,-0.106 -0.37,-0.104 -0.53,0.004 -0.16,0.108 -0.238,0.302 -0.2,0.491 0.039,0.189 0.188,0.336 0.378,0.372 0.258,0.05 0.508,-0.12 0.558,-0.378 z m -0.571,2.9 c 0.037,-0.189 -0.043,-0.382 -0.203,-0.489 -0.161,-0.107 -0.37,-0.107 -0.53,0 -0.161,0.108 -0.24,0.301 -0.203,0.49 0.038,0.189 0.201,0.352 0.392,0.377 0.261,0.034 0.493,-0.119 0.544,-0.378 z m -0.27,2.838 c -0.003,-0.193 -0.108,-0.34 -0.281,-0.424 -0.174,-0.084 -0.381,-0.054 -0.525,0.074 -0.144,0.129 -0.186,0.367 -0.11,0.544 0.077,0.178 0.252,0.291 0.445,0.289 0.263,-0.004 0.474,-0.22 0.471,-0.483 z m 0.391,2.792 c -0.052,-0.186 -0.21,-0.323 -0.402,-0.346 -0.191,-0.023 -0.378,0.071 -0.473,0.239 -0.095,0.168 -0.071,0.417 0.059,0.559 0.131,0.142 0.334,0.191 0.515,0.125 0.248,-0.091 0.371,-0.324 0.301,-0.577 z m 1.278,2.504 c -0.101,-0.165 -0.291,-0.252 -0.482,-0.222 -0.19,0.03 -0.344,0.172 -0.389,0.36 -0.045,0.187 0.027,0.383 0.184,0.497 0.156,0.113 0.359,0.115 0.528,0.022 0.23,-0.129 0.296,-0.433 0.159,-0.657 z m 1.418,2.642 c -0.084,-0.173 -0.265,-0.279 -0.457,-0.268 -0.193,0.011 -0.36,0.137 -0.423,0.319 -0.064,0.183 -0.011,0.385 0.133,0.513 0.144,0.129 0.332,0.15 0.511,0.079 0.245,-0.096 0.35,-0.406 0.236,-0.643 z m 1.02,2.867 c -0.048,-0.187 -0.204,-0.326 -0.395,-0.353 -0.191,-0.027 -0.38,0.063 -0.478,0.23 -0.098,0.166 -0.087,0.343 0.019,0.504 0.107,0.161 0.3,0.242 0.489,0.205 0.259,-0.051 0.431,-0.331 0.365,-0.586 z m 0.262,3.1 c 0.02,-0.192 -0.094,-0.409 -0.271,-0.487 -0.176,-0.077 -0.382,-0.041 -0.522,0.092 -0.139,0.133 -0.193,0.294 -0.139,0.479 0.054,0.185 0.215,0.319 0.407,0.339 0.262,0.028 0.497,-0.161 0.525,-0.423 z m -0.849,2.981 c 0.085,-0.173 0.075,-0.405 -0.064,-0.539 -0.138,-0.135 -0.333,-0.186 -0.516,-0.124 -0.183,0.061 -0.31,0.227 -0.323,0.419 -0.013,0.193 0.081,0.353 0.248,0.451 0.227,0.134 0.538,0.029 0.655,-0.207 z"
         style="display:inline;fill:#ffffff;fill-opacity:1;stroke:none;stroke-width:0.177307;stroke-dasharray:none;stroke-opacity:0.985882"
         id="circle7355" /><path
         d="m 142.75,126.567 c -0.021,-0.192 -0.155,-0.352 -0.341,-0.406 -0.185,-0.054 -0.384,0.009 -0.505,0.16 -0.121,0.15 -0.139,0.359 -0.046,0.528 0.093,0.169 0.279,0.265 0.47,0.244 0.262,-0.029 0.451,-0.264 0.422,-0.526 z m 0.441,2.887 c -0.034,-0.19 -0.179,-0.34 -0.368,-0.382 -0.188,-0.041 -0.383,0.035 -0.493,0.194 -0.111,0.158 -0.115,0.367 -0.011,0.53 0.104,0.162 0.296,0.246 0.486,0.212 0.259,-0.047 0.432,-0.294 0.386,-0.554 z m 0.475,2.951 c -0.02,-0.192 -0.161,-0.37 -0.348,-0.416 -0.188,-0.046 -0.384,0.025 -0.499,0.181 -0.114,0.155 -0.139,0.341 -0.047,0.51 0.091,0.17 0.276,0.268 0.468,0.248 0.262,-0.027 0.453,-0.261 0.426,-0.523 z m 0.093,3.041 c 0.018,-0.192 -0.09,-0.396 -0.265,-0.478 -0.175,-0.081 -0.382,-0.049 -0.524,0.082 -0.142,0.13 -0.198,0.305 -0.142,0.489 0.056,0.185 0.218,0.305 0.408,0.336 0.26,0.042 0.497,-0.166 0.523,-0.429 z m -0.68,2.983 c 0.063,-0.182 0.007,-0.403 -0.142,-0.525 -0.15,-0.122 -0.358,-0.141 -0.528,-0.049 -0.17,0.091 -0.268,0.251 -0.257,0.444 0.011,0.192 0.137,0.359 0.319,0.423 0.249,0.087 0.521,-0.044 0.608,-0.293 z m -0.928,2.777 c 0.054,-0.185 -0.009,-0.385 -0.159,-0.505 -0.151,-0.121 -0.359,-0.14 -0.528,-0.047 -0.169,0.093 -0.266,0.278 -0.245,0.47 0.021,0.192 0.157,0.366 0.345,0.407 0.258,0.056 0.513,-0.072 0.587,-0.325 z m -0.324,2.73 c -0.021,-0.192 -0.137,-0.319 -0.316,-0.391 -0.179,-0.072 -0.384,-0.028 -0.518,0.11 -0.135,0.138 -0.151,0.391 -0.059,0.56 0.093,0.17 0.288,0.285 0.477,0.245 0.258,-0.055 0.444,-0.263 0.416,-0.524 z m 0.833,2.651 c -0.081,-0.175 -0.26,-0.283 -0.453,-0.275 -0.193,0.008 -0.361,0.131 -0.428,0.312 -0.066,0.182 -0.016,0.385 0.126,0.515 0.142,0.131 0.355,0.168 0.526,0.08 0.235,-0.12 0.34,-0.393 0.229,-0.632 z m 1.322,2.66 c -0.075,-0.177 -0.27,-0.313 -0.463,-0.297 -0.192,0.015 -0.356,0.144 -0.415,0.328 -0.06,0.183 -0.034,0.357 0.103,0.493 0.137,0.135 0.342,0.175 0.52,0.101 0.243,-0.102 0.357,-0.382 0.255,-0.625 z m 0.77,3.013 c -0.003,-0.193 -0.128,-0.405 -0.314,-0.456 -0.186,-0.05 -0.371,-0.007 -0.505,0.131 -0.134,0.138 -0.172,0.344 -0.096,0.521 0.077,0.177 0.222,0.265 0.414,0.286 0.261,0.029 0.505,-0.219 0.501,-0.482 z m -0.697,3.011 c 0.058,-0.184 0.001,-0.385 -0.146,-0.509 -0.148,-0.125 -0.356,-0.149 -0.527,-0.06 -0.172,0.088 -0.273,0.271 -0.257,0.463 0.016,0.193 0.146,0.356 0.33,0.415 0.251,0.08 0.519,-0.058 0.6,-0.309 z m -0.854,2.8 c 0.048,-0.187 -0.02,-0.37 -0.17,-0.492 -0.149,-0.122 -0.358,-0.142 -0.527,-0.051 -0.17,0.092 -0.264,0.298 -0.237,0.489 0.027,0.191 0.166,0.347 0.353,0.396 0.255,0.066 0.515,-0.087 0.581,-0.342 z m -0.601,2.824 c 0.023,-0.191 -0.077,-0.351 -0.237,-0.458 -0.161,-0.108 -0.379,-0.094 -0.53,0.025 -0.152,0.119 -0.218,0.318 -0.166,0.503 0.052,0.186 0.21,0.323 0.402,0.346 0.261,0.032 0.499,-0.154 0.531,-0.416 z m -0.135,2.862 c -0.01,-0.193 -0.136,-0.361 -0.318,-0.425 -0.181,-0.064 -0.384,-0.013 -0.513,0.131 -0.129,0.143 -0.159,0.35 -0.076,0.524 0.083,0.174 0.278,0.291 0.469,0.27 0.262,-0.029 0.452,-0.237 0.438,-0.5 z m 0.413,2.856 c -0.037,-0.19 -0.184,-0.339 -0.373,-0.377 -0.189,-0.039 -0.383,0.04 -0.49,0.2 -0.108,0.16 -0.109,0.369 -0.003,0.53 0.106,0.161 0.299,0.242 0.489,0.206 0.258,-0.051 0.427,-0.301 0.377,-0.559 z m 0.637,2.863 c -0.045,-0.188 -0.198,-0.33 -0.389,-0.361 -0.19,-0.03 -0.38,0.057 -0.482,0.221 -0.101,0.164 -0.093,0.373 0.02,0.53 0.113,0.156 0.309,0.229 0.497,0.184 0.256,-0.061 0.415,-0.318 0.354,-0.574 z"
         style="display:inline;fill:#ffffff;fill-opacity:1;stroke:none;stroke-width:0.177307;stroke-dasharray:none;stroke-opacity:0.985882"
         id="circle2441" /><path
         d="m 145.253,127.597 c -10e-4,-0.193 -0.118,-0.367 -0.296,-0.44 -0.179,-0.073 -0.384,-0.031 -0.52,0.106 -0.135,0.137 -0.175,0.343 -0.1,0.521 0.074,0.178 0.249,0.293 0.442,0.292 0.263,-0.001 0.476,-0.216 0.474,-0.479 z m 0.138,2.897 c -0.022,-0.192 -0.155,-0.333 -0.337,-0.396 -0.183,-0.063 -0.39,10e-4 -0.51,0.152 -0.12,0.151 -0.138,0.359 -0.045,0.528 0.094,0.169 0.279,0.265 0.471,0.243 0.262,-0.029 0.45,-0.265 0.421,-0.527 z m 0.414,2.877 c -0.04,-0.189 -0.181,-0.317 -0.368,-0.362 -0.188,-0.046 -0.384,0.026 -0.498,0.182 -0.113,0.156 -0.103,0.389 0.006,0.548 0.109,0.16 0.303,0.237 0.492,0.197 0.258,-0.054 0.423,-0.307 0.368,-0.565 z m 0.613,2.866 c -0.049,-0.187 -0.192,-0.311 -0.381,-0.346 -0.19,-0.036 -0.382,0.047 -0.487,0.208 -0.106,0.162 -0.09,0.394 0.027,0.547 0.116,0.154 0.314,0.222 0.501,0.173 0.254,-0.067 0.407,-0.327 0.34,-0.582 z m 0.744,2.833 c -0.058,-0.184 -0.2,-0.302 -0.391,-0.328 -0.191,-0.026 -0.379,0.066 -0.476,0.232 -0.098,0.167 -0.076,0.401 0.048,0.548 0.125,0.147 0.326,0.205 0.51,0.147 0.251,-0.08 0.389,-0.348 0.309,-0.599 z m 1.055,2.695 c -0.08,-0.176 -0.257,-0.286 -0.45,-0.28 -0.193,0.007 -0.363,0.128 -0.431,0.309 -0.067,0.181 -0.02,0.384 0.121,0.516 0.141,0.132 0.347,0.166 0.523,0.086 0.24,-0.109 0.346,-0.392 0.237,-0.631 z m 1.255,2.676 c -0.079,-0.176 -0.256,-0.287 -0.449,-0.282 -0.193,0.006 -0.363,0.127 -0.432,0.307 -0.069,0.18 -0.022,0.384 0.118,0.517 0.141,0.132 0.343,0.161 0.522,0.089 0.245,-0.098 0.349,-0.391 0.241,-0.631 z m 1.066,2.815 c -0.057,-0.184 -0.231,-0.326 -0.424,-0.337 -0.192,-0.011 -0.372,0.096 -0.456,0.269 -0.084,0.174 -0.066,0.365 0.057,0.514 0.123,0.148 0.324,0.208 0.508,0.151 0.252,-0.078 0.393,-0.345 0.315,-0.597 z m 0.817,2.871 c -0.045,-0.187 -0.204,-0.34 -0.395,-0.365 -0.192,-0.024 -0.379,0.069 -0.475,0.236 -0.096,0.168 -0.094,0.362 0.019,0.519 0.113,0.156 0.309,0.229 0.497,0.185 0.256,-0.061 0.415,-0.318 0.354,-0.575 z m 0.605,2.913 c -0.036,-0.19 -0.183,-0.339 -0.371,-0.378 -0.189,-0.04 -0.383,0.039 -0.492,0.198 -0.109,0.159 -0.11,0.369 -0.005,0.53 0.106,0.161 0.298,0.243 0.488,0.207 0.259,-0.049 0.429,-0.298 0.38,-0.557 z m 0.45,2.944 c -0.025,-0.191 -0.163,-0.348 -0.35,-0.397 -0.186,-0.05 -0.384,0.017 -0.501,0.171 -0.118,0.153 -0.131,0.362 -0.034,0.529 0.097,0.167 0.284,0.259 0.475,0.233 0.262,-0.035 0.445,-0.274 0.41,-0.536 z m 0.214,2.999 c -0.003,-0.193 -0.123,-0.366 -0.302,-0.437 -0.18,-0.07 -0.384,-0.025 -0.518,0.114 -0.134,0.139 -0.171,0.343 -0.094,0.52 0.076,0.177 0.252,0.291 0.445,0.287 0.263,-0.004 0.473,-0.221 0.469,-0.484 z"
         style="display:inline;fill:#ffffff;fill-opacity:1;stroke:none;stroke-width:0.177307;stroke-dasharray:none;stroke-opacity:0.985882"
         id="circle9479" /><path
         style="display:inline;fill:#e9b424;fill-opacity:1;stroke:#000001;stroke-width:0.3;stroke-dasharray:none;stroke-opacity:0.985882"
         d="m 129.78697,181.08752 c -1.03892,1.86297 -2.08033,3.72517 -2.57083,5.8637 -0.84722,3.69379 0.7188,7.25388 1.95102,10.62153 0.13239,0.36183 -2.69759,-3.35829 -3.53919,-4.88016 -2.34553,-4.2414 -0.79828,-9.16219 1.41064,-13.12077 1.88064,-3.37028 2.55669,-7.74234 1.23975,-11.43066 -1.28294,-3.59309 -4.39794,-6.06942 -6.74944,-8.96599 -2.50207,-3.08203 -1.89985,-7.38632 -0.35765,-10.73798 1.71968,-3.73738 5.34008,-6.11715 7.43409,-9.58238 1.44975,-2.84135 -1.1406,-5.32345 -3.26865,-6.94768 -2.80823,-2.14338 -5.79538,-4.38065 -7.60727,-7.47837 0.14901,-0.95028 1.66009,-1.22039 2.38584,-1.88267 0.8809,-0.54723 1.76181,-1.09446 2.64272,-1.64169 4.21302,2.86722 8.08842,6.52189 10.54478,11.03689 1.93749,3.64827 1.23373,8.37939 -1.92313,11.28923 -2.79624,2.57744 -5.79351,5.6826 -6.2777,9.67214 -0.24771,5.19564 4.268,8.63229 6.51927,12.83436 1.67373,3.04968 1.48461,6.64921 0.6072,9.94879 -0.51807,1.94824 -1.47869,3.67531 -2.44145,5.40171"
         id="path10" /><path
         style="display:inline;fill:#e9b424;fill-opacity:1;stroke:#000001;stroke-width:0.3;stroke-dasharray:none;stroke-opacity:0.985882"
         d="m 120.14493,173.5803 c -0.64465,-4.23644 1.48342,-8.46416 4.92603,-11.07317 2.06043,-1.56151 4.84693,-3.30502 5.13719,-5.92427 0.32919,-2.97053 -1.42849,-5.76011 -3.54608,-7.96946 0,0 1.20916,-1.98122 2.97264,-3.64678 0.29173,0.39313 0.58229,0.76763 0.85514,1.11805 1.73053,2.22245 3.83297,4.21609 4.49126,7.14478 0.98502,4.38227 -1.35082,8.71964 -5.12106,10.91972 -3.01164,1.75741 -6.24254,4.76949 -6.09184,8.46975 0.1061,2.60523 1.59102,4.70861 3.43923,6.55292 m 0.0976,-38.49807 c -0.31407,-1.19068 -0.26633,-2.38585 0.43621,-3.48872 3.16464,-4.96801 7.49898,-9.10063 11.42361,-13.49578 -1.3047,-0.63742 -2.60939,-1.27484 -3.91409,-1.91226 l -4.52625,4.62045 c -3.38123,3.45159 -7.51023,6.56257 -9.06677,11.31094 -0.81359,2.48194 0.18597,5.25172 1.65845,7.4003 0,0 3.04476,-3.31017 3.98884,-4.43493 z m -7.1601,32.90653 c 0.53559,3.51973 2.75031,6.69934 5.5031,8.90301 0,0 0.49777,-1.39375 1.55941,-3.31147 m 2.4135,2.17744 c 0.55639,0.47084 1.10821,0.92911 1.63273,1.38024 3.02238,2.59945 3.73905,6.77318 3.73006,10.60356 -0.003,1.33904 -0.0142,6.77865 -0.26027,2.80154 -0.27833,-4.49829 -1.79334,-9.3758 -5.9775,-11.89531 -0.14711,-0.0886 -0.2943,-0.17886 -0.4414,-0.27083 0,0 0.56694,-1.3947 1.31638,-2.6192 z"
         id="path17" /><path
         style="display:inline;fill:none;fill-opacity:1;stroke:#001ff5;stroke-width:0.3;stroke-dasharray:none;stroke-opacity:0.985882"
         d="m 122.19172,126.99487 c 1.37095,1.22775 2.73358,2.46478 4.08897,3.70968 m 3.68142,3.43026 c 1.6378,1.0619 1.42503,3.4358 0.16612,4.90918 -0.7806,0.91359 -1.71301,1.68786 -2.45325,2.63729"
         id="path44" /><path
         style="display:inline;fill:none;fill-opacity:1;stroke:#001ff5;stroke-width:0.3;stroke-dasharray:none;stroke-opacity:0.985882"
         d="m 132.21512,132.41726 c 2.48072,3.19599 0.42508,7.62765 -2.32381,10.02708 -3.77456,3.29473 -8.17466,7.531 -7.55436,12.95813 0.28904,2.5288 1.68957,4.74459 3.12089,6.78048 m 2.5199,3.34274 c 1.81583,2.81507 1.82254,6.24724 1.38065,9.73642 -0.66557,5.25543 -4.89963,9.86314 -3.72282,15.36317"
         id="path45" /><path
         style="display:inline;fill:none;fill-opacity:1;stroke:#001ff5;stroke-width:0.3;stroke-dasharray:none;stroke-opacity:0.985882"
         d="m 125.85659,190.54906 c -0.95795,-4.37818 1.80167,-8.27499 3.51686,-12.05964 1.64125,-3.62151 2.86843,-8.0266 1.28679,-11.73287 -0.33406,-0.78282 -0.88347,-1.44256 -1.36697,-2.1342 m -2.39125,-3.55451 c -2.21844,-3.24204 -3.33711,-7.71818 -1.38399,-11.35484"
         id="path46" /><path
         style="display:inline;fill:none;fill-opacity:1;stroke:#001ff5;stroke-width:0.3;stroke-dasharray:none;stroke-opacity:0.985882"
         d="m 134.63472,127.34653 c -2.77006,2.71794 -5.67225,5.28885 -8.03075,8.45131 -0.82133,1.10131 -1.23333,2.46712 -1.15222,3.86027 0.0397,0.68117 0.17298,1.35459 0.36591,2.00825"
         id="path47" /><path
         style="display:inline;fill:none;fill-opacity:1;stroke:#001ff5;stroke-width:0.3;stroke-dasharray:none;stroke-opacity:0.985882"
         d="m 124.05722,144.20786 c -1.94798,-2.17033 -2.51107,-5.87025 -0.68932,-8.06847 2.70084,-3.25899 5.46386,-6.46572 8.18881,-9.70444"
         id="path48" /><path
         style="display:inline;fill:none;fill-opacity:1;stroke:#001ff5;stroke-width:0.3;stroke-dasharray:none;stroke-opacity:0.985882"
         d="m 127.88833,148.23355 c 0,0 4.98625,4.56845 2.83613,9.36974"
         id="path49" /><path
         style="display:inline;fill:none;fill-opacity:1;stroke:#001ff5;stroke-width:0.3;stroke-dasharray:none;stroke-opacity:0.985882"
         d="m 129.58618,146.69092 c 3.61484,2.47558 5.20609,7.8545 2.73985,11.7171 -2.77509,4.3463 -8.86002,5.96934 -10.50834,10.99336 -1.34584,4.10207 0.84733,8.56129 3.99589,11.18761"
         id="path50" /><path
         style="display:inline;fill:none;fill-opacity:1;stroke:#001ff5;stroke-width:0.3;stroke-dasharray:none;stroke-opacity:0.985882"
         d="m 129.17658,183.46091 c 0,0 3.03225,3.04715 3.83688,4.60818"
         id="path51" /><path
         style="display:inline;fill:none;fill-opacity:1;stroke:#001ff5;stroke-width:0.3;stroke-dasharray:none;stroke-opacity:0.985882"
         d="m 134.04374,158.90986 c -3.4916,3.92457 -8.54732,6.84112 -10.4164,11.85003 -1.02546,2.74809 0.44659,5.63289 2.32989,7.80426 0.21036,0.24254 0.41772,0.48783 0.61564,0.74069"
         id="path52" /><path
         style="display:inline;fill:none;fill-opacity:1;stroke:#001ff5;stroke-width:0.3;stroke-dasharray:none;stroke-opacity:0.985882"
         d="m 129.75297,182.4818 c 0,0 1.85404,1.52255 2.70679,3.39425"
         id="path53" /><path
         style="fill:#a50000;fill-opacity:1;stroke:#0c0c0c;stroke-width:0.2;stroke-opacity:0.985882"
         d="m 108.34811,132.92299 c 0,0 -4.42338,1.52615 -5.66202,-1.61581 0,0 -6.959392,-1.29474 -5.762028,-8.87874 0,0 -1.335309,-6.30274 6.448568,-8.61934 0,0 0.88364,-0.12236 1.00659,-1.13435 0,0 3.73687,-12.05748 20.13837,-13.831172 0,0 17.23378,-3.040495 26.50693,11.027972 0,0 3.102,0.54525 4.38754,2.43811 0,0 8.8454,2.62559 2.95423,12.59249 0,0 0.11603,4.1667 -6.21501,4.73306 -3.37512,2.09761 -5.48493,1.55337 -5.48493,1.55337 v -0.0155 c 0,0 1.2889,-2.21699 0.25897,-3.75012 0,0 -3.12965,-3.2829 -16.24012,-3.00062 0,0 -12.75482,0.19641 -19.88209,3.73325 0,0 -1.85922,0.78561 -2.455,4.7674 z"
         id="path1" /><path
         style="fill:#2a8eff;fill-opacity:1;stroke:#000000;stroke-width:0.2;stroke-opacity:0.985882"
         d="m 109.05034,130.34998 c -9.780296,0.39265 -12.22085,-7.36457 -12.22085,-7.36457 l 0.07662,-0.58114 c 0,0 2.738481,7.84756 12.25731,7.62579 z"
         id="path2" /><path
         style="fill:#2a8eff;fill-opacity:1;stroke:#000000;stroke-width:0.2;stroke-opacity:0.985882"
         d="m 110.73754,128.15802 c -11.485298,-4.52601 -7.30577,-14.33797 -7.30577,-14.33797 l 0.38293,-0.20387 c 0,0 -4.01416,9.94181 7.33908,14.36232 z"
         id="path3" /><path
         style="fill:#2a8eff;fill-opacity:1;stroke:#000000;stroke-width:0.2;stroke-opacity:0.985882"
         d="m 117.04184,126.05447 c 0,0 -11.25973,-10.76396 2.64002,-26.3232 l 0.52227,-0.12103 c 0,0 -13.89239,13.64484 -2.57405,26.28516 z"
         id="path4" /><path
         style="fill:#2a8eff;fill-opacity:1;stroke:#000000;stroke-width:0.2;stroke-opacity:0.985882"
         d="m 126.12077,124.66428 c 0,0 -4.73685,-22.15255 -1.25129,-25.861051 l 0.4634,-0.04696 c 0,0 -3.3585,1.986511 1.38251,25.869291 z"
         id="path5" /><path
         style="fill:#2a8eff;fill-opacity:1;stroke:#000000;stroke-width:0.2;stroke-opacity:0.985882"
         d="m 134.34048,124.41724 c 0,0 5.04256,-18.74105 -4.70598,-25.820371 l 0.89862,0.01629 c 0,0 8.93513,6.392831 4.61015,25.872881 z"
         id="path6" /><path
         style="fill:#2a8eff;fill-opacity:1;stroke:#000000;stroke-width:0.2;stroke-opacity:0.985882"
         d="m 142.81865,125.52323 c 0,0 8.02605,-16.34072 -3.4228,-25.0213 l 1.82013,0.78032 c 0,0 9.75656,6.86699 2.25033,24.43386 z"
         id="path7" /><path
         style="fill:#2a8eff;fill-opacity:1;stroke:#000000;stroke-width:0.2;stroke-opacity:0.985882"
         d="m 146.91619,127.36186 c 0,0 13.3218,-5.21258 8.47001,-15.10252 l 0.45336,0.21767 0.33933,0.17463 c 0,0 5.01267,8.59893 -8.94794,15.38293 z"
         id="path8" /></g></g></svg>
